# xmcd
#
# Track frame offsets:
#	182
#	15895
#	25717
#	36710
#	45965
#	56070
#	65277
#	79535
#	89695
#	99597
#	107975
#	119960
#	131552
#	142680
#	156212
#	166292
#	177905
#	188645
#	198865
#	213792
#	228692
#	240032
#	255252
#	270207
#	282955
#
# Disc length: 3925 seconds
#
# Revision: 2254728541
# Processed by: cddbd v1.5.2PL0 Copyright (c) Steve Scherf et al.
# Submitted via: EZCDAudioConverter 8.0.2.1
#
DISCID=460f5319
DTITLE=Various Artist - Country Stars - 125 Great Country Hits
DYEAR=1994
DGENRE=Pop/Country
TTITLE0=Ernest Tubb - Soldier's Last Letter
TTITLE1=Merle Travis - So Round, So Firm, So Fully Packed
TTITLE2=Hank Williams - I'll Never Get Out Of This World Alive
TTITLE3=Faron Young - Live Fast, Love HArd, Die Young
TTITLE4=Carl Perkins - Blue Suede Shoes
TTITLE5=Webb Pierce - Honky Tonk Song
TTITLE6=Bobby Helms - My Special Angel
TTITLE7=Ferlin Husky - Gone
TTITLE8=Johnny Cash - Ballad Of A Teenage Queen
TTITLE9=Jerry Lee Lewis - Great Balls Of Fire
TTITLE10=Stonewall Jackson - Waterloo
TTITLE11=George Jones - White Lightnin'
TTITLE12=Kitty Wells - Heartbreak U.S.A.
TTITLE13=Jimmy Dean - Big Bad John
TTITLE14=Leroy Van Dyke - Walk On By
TTITLE15=Billy Walker - Charlie's Shoes
TTITLE16=Buck Owens - Act Naturally
TTITLE17=David Houston - With One Exception
TTITLE18=Jeannie C. Riley - Harper Valley PTA
TTITLE19=Don Gibson - Woman (Sensuous Woman)
TTITLE20=Donna Fargo - Superman
TTITLE21=Conway Twitty - Touch The Hand
TTITLE22=B.J. Thomas - Another Somebody Done Somebody Wrong Song
TTITLE23=Freddy Fender - You'll Lose A Good Thing
TTITLE24=Charlie Rich - Rollin' With The Flow
EXTD=
EXTT0=
EXTT1=
EXTT2=
EXTT3=
EXTT4=
EXTT5=
EXTT6=
EXTT7=
EXTT8=
EXTT9=
EXTT10=
EXTT11=
EXTT12=
EXTT13=
EXTT14=
EXTT15=
EXTT16=
EXTT17=
EXTT18=
EXTT19=
EXTT20=
EXTT21=
EXTT22=
EXTT23=
EXTT24=
PLAYORDER=
